<svg xmlns="http://www.w3.org/2000/svg" viewBox="0 0 48 48" fill="none">
  <!-- Shield base -->
  <path d="M24 4L6 12v14c0 9.5 7.7 18.4 18 21 10.3-2.6 18-11.5 18-21V12L24 4z" fill="#1A2F55"/>
  <!-- Shield inner gradient layer -->
  <path d="M24 8L10 15v11c0 7.8 6.3 15.1 14 17.3 7.7-2.2 14-9.5 14-17.3V15L24 8z" fill="#0A1628"/>
  <!-- Neural network nodes -->
  <circle cx="18" cy="22" r="2" fill="#2563EB"/>
  <circle cx="24" cy="18" r="2" fill="#4F46E5"/>
  <circle cx="30" cy="22" r="2" fill="#2563EB"/>
  <circle cx="21" cy="28" r="2" fill="#38BDF8"/>
  <circle cx="27" cy="28" r="2" fill="#38BDF8"/>
  <!-- Network connections -->
  <line x1="18" y1="22" x2="24" y2="18" stroke="#2563EB" stroke-width="1" opacity="0.7"/>
  <line x1="24" y1="18" x2="30" y2="22" stroke="#2563EB" stroke-width="1" opacity="0.7"/>
  <line x1="18" y1="22" x2="21" y2="28" stroke="#38BDF8" stroke-width="1" opacity="0.7"/>
  <line x1="30" y1="22" x2="27" y2="28" stroke="#38BDF8" stroke-width="1" opacity="0.7"/>
  <line x1="21" y1="28" x2="27" y2="28" stroke="#38BDF8" stroke-width="1" opacity="0.7"/>
  <!-- Pulse line -->
  <polyline points="14,25 17,25 19,20 22,30 25,22 28,27 31,25 34,25" stroke="#38BDF8" stroke-width="1.5" fill="none" opacity="0.9"/>
</svg>
